HIERARCHY
ROOT SpineBase
{
  OFFSET 0.000000 0.000000 0.000000
  CHANNELS 6 Xposition Yposition Zposition Zrotation Xrotation Yrotation
  JOINT SpineMid
  {
    OFFSET 0.000000 28.875881 0.000000
    CHANNELS 3 Zrotation Xrotation Yrotation
    JOINT SpineShoulder
    {
      OFFSET 0.067937 21.481073 -0.676849
      CHANNELS 3 Zrotation Xrotation Yrotation
      JOINT Neck
      {
        OFFSET 0.013084 7.110478 -0.512808
        CHANNELS 3 Zrotation Xrotation Yrotation
        JOINT Head
        {
          OFFSET -2.502482 11.097808 -0.288633
          CHANNELS 3 Zrotation Xrotation Yrotation
          End Site
          {
            OFFSET 0 0 0
          }
        }
      }
      JOINT ShoulderLeft
      {
        OFFSET -16.347031 -2.651276 5.818319
        CHANNELS 3 Zrotation Xrotation Yrotation
        JOINT ElbowLeft
        {
          OFFSET -2.769517 -22.692105 -0.059973
          CHANNELS 3 Zrotation Xrotation Yrotation
          JOINT WristLeft
          {
            OFFSET 7.246449 -14.318820 -21.710672
            CHANNELS 3 Zrotation Xrotation Yrotation
            JOINT HandLeft
            {
              OFFSET 3.920646 -0.490602 -1.100311
              CHANNELS 3 Zrotation Xrotation Yrotation
              JOINT HandTipLeft
              {
                OFFSET 5.242362 3.897703 -4.899961
                CHANNELS 3 Zrotation Xrotation Yrotation
                End Site
                {
                  OFFSET 0 0 0
                }
              }
              JOINT ThumbLeft
              {
                OFFSET 4.112831 -2.780544 3.960736
                CHANNELS 3 Zrotation Xrotation Yrotation
                End Site
                {
                  OFFSET 0 0 0
                }
              }
            }
          }
        }
      }
      JOINT ShoulderRight
      {
        OFFSET 14.910535 -0.749339 -5.920863
        CHANNELS 3 Zrotation Xrotation Yrotation
        JOINT ElbowRight
        {
          OFFSET 6.128629 -19.825518 -3.112445
          CHANNELS 3 Zrotation Xrotation Yrotation
          JOINT WristRight
          {
            OFFSET -9.899083 -14.117926 -8.191925
            CHANNELS 3 Zrotation Xrotation Yrotation
            JOINT HandRight
            {
              OFFSET -4.131424 -0.857903 3.405442
              CHANNELS 3 Zrotation Xrotation Yrotation
              JOINT HandTipRight
              {
                OFFSET -5.948983 -1.319263 -5.156512
                CHANNELS 3 Zrotation Xrotation Yrotation
                End Site
                {
                  OFFSET 0 0 0
                }
              }
              JOINT ThumbRight
              {
                OFFSET 0.838600 -4.859920 1.289145
                CHANNELS 3 Zrotation Xrotation Yrotation
                End Site
                {
                  OFFSET 0 0 0
                }
              }
            }
          }
        }
      }
    }
  }
  JOINT HipLeft
  {
    OFFSET -5.751639 0.012537 -1.193521
    CHANNELS 3 Zrotation Xrotation Yrotation
    JOINT KneeLeft
    {
      OFFSET -5.232945 -29.532657 3.663365
      CHANNELS 3 Zrotation Xrotation Yrotation
      JOINT AnkleLeft
      {
        OFFSET -0.014469 -37.413052 7.219961
        CHANNELS 3 Zrotation Xrotation Yrotation
        JOINT FootLeft
        {
          OFFSET -2.503710 -7.709446 -5.388018
          CHANNELS 3 Zrotation Xrotation Yrotation
          End Site
          {
            OFFSET 0 0 0
          }
        }
      }
    }
  }
  JOINT HipRight
  {
    OFFSET 5.218181 1.286072 -5.263302
    CHANNELS 3 Zrotation Xrotation Yrotation
    JOINT KneeRight
    {
      OFFSET 6.536234 -27.822111 2.108675
      CHANNELS 3 Zrotation Xrotation Yrotation
      JOINT AnkleRight
      {
        OFFSET 2.390684 -35.878263 5.797077
        CHANNELS 3 Zrotation Xrotation Yrotation
        JOINT FootRight
        {
          OFFSET -3.743565 -4.833748 -9.538660
          CHANNELS 3 Zrotation Xrotation Yrotation
          End Site
          {
            OFFSET 0 0 0
          }
        }
      }
    }
  }
}
MOTION
Frames: 16
Frame Time: 0.033333
33.130708 74.642618 372.887425 -0.000000 0.000000 20.354751 -0.000000 0.000000 -20.354751 -0.000000 0.000000 0.000000 -0.000000 0.000000 0.000000 0.000000 0.000000 0.000000 -0.000000 0.000000 0.000000 -0.000000 0.000000 0.000000 -0.000000 0.000000 0.000000 -0.000000 0.000000 0.000000 0.000000 0.000000 0.000000 0.000000 0.000000 0.000000 -0.000000 0.000000 0.000000 -0.000000 0.000000 0.000000 -0.000000 0.000000 0.000000 -0.000000 0.000000 0.000000 0.000000 0.000000 0.000000 0.000000 0.000000 0.000000 -0.000000 0.000000 -20.354751 -0.000000 0.000000 0.000000 -0.000000 0.000000 0.000000 0.000000 0.000000 0.000000 -0.000000 0.000000 -20.354751 -0.000000 0.000000 0.000000 -0.000000 0.000000 0.000000 0.000000 0.000000 0.000000
33.178584 74.682311 372.853391 -0.060870 0.046098 20.277948 0.041121 -0.064337 -20.277901 -0.000000 0.000000 0.000000 -0.000000 0.000000 0.000000 0.000000 0.000000 0.000000 0.297440 0.803562 -0.100976 -0.296052 -0.804074 0.096813 -0.334395 0.626229 5.815768 -1.558685 -1.459576 -6.679856 0.000000 0.000000 0.000000 0.000000 0.000000 0.000000 -0.000000 0.000000 0.000000 -0.000000 0.000000 0.000000 -0.179998 -0.721149 2.669876 -1.535097 2.298270 -2.331732 0.000000 0.000000 0.000000 0.000000 0.000000 0.000000 0.041121 -0.064337 -20.277901 -0.000000 0.000000 0.000000 -1.605305 7.485407 -1.149572 0.000000 0.000000 0.000000 0.041121 -0.064337 -20.277901 -0.000000 0.000000 0.000000 0.142067 -1.025758 0.525136 0.000000 0.000000 0.000000
33.224425 74.718015 372.821528 -0.116496 0.090528 20.219335 0.078030 -0.125212 -20.219158 -0.000000 0.000000 0.000000 -0.000000 0.000000 0.000000 0.000000 0.000000 0.000000 0.512587 1.387025 -0.176942 -0.508451 -1.388546 0.164575 -0.921703 0.934188 9.975177 -2.888732 -2.485148 -11.468355 0.000000 0.000000 0.000000 0.000000 0.000000 0.000000 -0.000000 0.000000 0.000000 -0.000000 0.000000 0.000000 -0.435854 -1.488856 5.076182 -2.180145 4.071628 -4.235282 0.000000 0.000000 0.000000 0.000000 0.000000 0.000000 0.078030 -0.125212 -20.219158 -0.000000 0.000000 0.000000 -2.767452 13.745925 -2.030308 0.000000 0.000000 0.000000 0.078030 -0.125212 -20.219158 -0.000000 0.000000 0.000000 0.212559 -1.454748 0.729264 0.000000 0.000000 0.000000
33.268233 74.749730 372.791836 -0.166866 0.133279 20.179089 0.110649 -0.182659 -20.178718 -0.000000 0.000000 0.000000 -0.934893 -0.016432 -0.028206 0.000000 0.000000 0.000000 0.652136 1.770787 -0.228088 -0.980174 -1.326569 0.927390 -1.361707 0.513094 11.844735 -3.771385 -3.272047 -14.347420 0.000000 0.000000 0.000000 0.000000 0.000000 0.000000 -0.000000 0.000000 0.000000 -0.000000 0.000000 0.000000 -0.774604 -2.296135 7.156099 -2.188611 5.379039 -5.688702 0.000000 0.000000 0.000000 0.000000 0.000000 0.000000 0.110649 -0.182659 -20.178718 -0.000000 0.000000 0.000000 -3.557685 18.812492 -2.742469 0.000000 0.000000 0.000000 0.110649 -0.182659 -20.178718 -0.000000 0.000000 0.000000 0.200954 -1.262936 0.597605 0.000000 0.000000 0.000000
33.310006 74.777458 372.764316 -0.211970 0.174344 20.157340 0.138909 -0.236709 -20.156731 -0.000000 0.000000 0.000000 -1.171158 0.021122 -0.025541 0.000000 0.000000 0.000000 0.720177 1.967480 -0.254603 -1.211055 -1.606605 1.151462 -2.143453 0.359969 12.819631 -4.011262 -3.977662 -15.337567 0.000000 0.000000 0.000000 0.000000 0.000000 0.000000 -0.000000 0.000000 0.000000 1.016416 -0.146211 -0.489378 -2.193623 -3.006578 9.351982 -1.702248 6.228908 -6.639631 0.000000 0.000000 0.000000 0.000000 0.000000 0.000000 0.138909 -0.236709 -20.156731 -0.000000 0.000000 0.000000 -4.032352 22.807037 -3.360020 0.000000 0.000000 0.000000 0.138909 -0.236709 -20.156731 -0.000000 0.000000 0.000000 -0.000000 0.000000 0.000000 0.000000 0.000000 0.000000
33.349745 74.801197 372.738967 -0.251802 0.213715 20.154173 0.162751 -0.287385 -20.153295 -0.000000 0.000000 0.000000 -1.369619 0.080065 -0.016657 0.000000 0.000000 0.000000 0.718500 1.982921 -0.256553 -1.393965 -1.832389 1.324622 -3.072877 0.119932 12.508615 -3.425690 -4.675177 -14.462366 0.000000 0.000000 0.000000 0.000000 0.000000 0.000000 -0.000000 0.000000 0.000000 1.485343 -0.236301 -0.700363 -3.166096 -3.793599 10.850276 -0.788516 6.591209 -7.016714 0.000000 0.000000 0.000000 0.000000 0.000000 0.000000 0.162751 -0.287385 -20.153295 0.006717 0.956615 0.000872 -4.206492 24.918537 -4.013324 0.000000 0.000000 0.000000 0.162751 -0.287385 -20.153295 -0.000000 0.000000 0.000000 -0.035624 0.910038 -0.624285 0.000000 0.000000 0.000000
33.399785 74.821324 372.723895 -0.284739 0.239890 20.214473 0.184314 -0.323500 -20.213356 -0.000000 0.000000 0.000000 -1.501719 0.245048 0.019468 0.000000 0.000000 0.000000 0.625887 1.734005 -0.222913 -1.412915 -1.820582 1.346421 -4.468244 -0.703579 6.512812 1.086912 -4.115561 -6.094675 0.000000 0.000000 0.000000 0.000000 0.000000 0.000000 -0.000000 0.000000 0.000000 0.798889 -0.202194 -0.322285 0.149840 -0.286437 6.579539 -3.449292 2.196263 -2.126228 0.000000 0.000000 0.000000 0.000000 0.000000 0.000000 0.184314 -0.323500 -20.213356 -0.219637 1.267095 -0.040533 -2.890073 26.102100 -5.212403 0.000000 0.000000 0.000000 -0.549001 -1.123743 -20.489811 0.406881 1.006235 0.263621 -0.417535 5.521608 -3.128164 0.000000 0.000000 0.000000
33.442360 74.845491 372.695464 -0.312113 0.290040 20.232622 0.192554 -0.380080 -20.231194 -0.000000 0.000000 0.000000 -1.625014 0.358530 0.043808 0.000000 0.000000 0.000000 0.389419 1.212222 -0.153162 -1.500682 -1.981041 1.438244 -7.293197 -1.109245 5.256069 3.540508 -5.776394 -2.760786 0.000000 0.000000 0.000000 0.000000 0.000000 0.000000 -0.000000 0.000000 0.000000 2.349089 -0.509428 -1.012752 -4.264829 -3.681000 10.713699 0.975123 4.163676 -4.088261 0.000000 0.000000 0.000000 0.000000 0.000000 0.000000 -0.279207 -1.083359 -20.116260 -0.217686 2.234768 -0.193326 -2.207181 27.026702 -5.825802 0.000000 0.000000 0.000000 -0.660831 -1.542261 -20.601215 -0.165945 0.214172 0.189984 -0.042570 11.773115 -5.762932 0.000000 0.000000 0.000000
33.468063 74.877170 372.651903 -0.343407 0.354424 20.323176 0.198940 -0.451626 -20.321330 -0.000000 0.000000 0.000000 -1.716738 0.461294 0.066510 0.000000 0.000000 0.000000 -0.000000 0.000000 0.000000 -1.568418 -1.683657 1.548189 -10.074036 -1.160952 7.787495 5.364290 -8.001973 -3.504150 0.000000 0.000000 0.000000 0.000000 0.000000 0.000000 -0.000000 0.000000 0.000000 1.905356 -0.310065 -0.894941 -1.893498 -1.188978 7.602892 -1.763539 2.186573 -1.514908 0.000000 0.000000 0.000000 0.000000 0.000000 0.000000 -0.332132 -1.340799 -20.172882 -0.360180 2.649591 -0.249039 -1.736322 25.721792 -5.818255 0.000000 0.000000 0.000000 -0.656400 -1.696640 -20.709371 -0.314821 -0.060411 0.163938 0.038831 12.664101 -5.971090 0.000000 0.000000 0.000000
33.480683 74.888822 372.614557 -0.370751 0.412478 20.322557 0.204427 -0.515561 -20.320303 -0.000000 0.000000 0.000000 -1.773626 0.549194 0.086522 0.000000 0.000000 0.000000 -0.000000 0.000000 0.000000 -1.985622 -2.500514 1.776188 -12.348849 -1.272957 10.408231 6.228151 -11.283365 -3.578566 0.000000 0.000000 0.000000 0.000000 0.000000 0.000000 -0.000000 0.000000 0.000000 2.665925 -0.764721 -1.013616 -3.356428 -1.077649 6.321244 0.555635 0.500767 1.281415 0.000000 0.000000 0.000000 0.000000 0.000000 0.000000 -0.305910 -1.524875 -20.146399 -0.550517 2.964639 -0.293697 -1.979779 28.465483 -6.211199 0.000000 0.000000 0.000000 -0.578350 -1.677260 -20.680049 -0.376680 -0.329876 0.120569 0.116904 10.714644 -4.830693 0.000000 0.000000 0.000000
33.492322 74.881875 372.585632 -0.383376 0.474708 20.286703 0.195019 -0.578179 -20.284131 -0.000000 0.000000 0.000000 -1.779760 0.442478 0.060576 0.000000 0.000000 0.000000 -0.000000 0.000000 0.000000 -2.378813 -3.252368 2.000346 -13.311371 -1.063327 12.908949 6.839945 -13.915986 -3.441284 0.000000 0.000000 0.000000 0.000000 0.000000 0.000000 -0.000000 0.000000 0.000000 3.284781 -0.996484 -1.209598 -5.078376 -2.491868 8.708960 3.378695 -0.073313 1.553625 0.000000 0.000000 0.000000 0.000000 0.000000 0.000000 -0.276663 -1.712568 -20.082417 -0.642633 3.227537 -0.321486 -3.136179 34.458176 -6.675295 0.000000 0.000000 0.000000 -0.369363 -1.538686 -20.566967 -0.531557 -0.502318 0.050374 0.131319 10.640662 -4.831126 0.000000 0.000000 0.000000
33.501371 74.870914 372.541054 -0.368194 0.552689 20.198271 0.154739 -0.645821 -20.195623 -0.000000 0.000000 0.000000 -1.856113 0.442832 0.058973 0.000000 0.000000 0.000000 -0.000000 0.000000 0.000000 -2.929179 -4.303796 2.314642 -12.932740 -0.159374 16.414331 4.732716 -18.659913 -3.181193 0.000000 0.000000 0.000000 0.000000 0.000000 0.000000 -0.000000 0.000000 0.000000 4.621917 -1.777515 -1.417958 -7.844992 -3.388530 9.679433 4.898032 1.312919 1.130570 0.000000 0.000000 0.000000 0.000000 0.000000 0.000000 -0.392866 -1.728678 -20.011044 -0.470156 3.222034 -0.294622 -3.632624 30.829274 -5.540698 0.000000 0.000000 0.000000 0.154739 -0.645821 -20.195623 -0.701820 -1.370468 -0.212791 0.088491 10.444746 -4.835346 0.000000 0.000000 0.000000
33.512565 74.861687 372.517624 -0.370574 0.602535 20.076566 0.141237 -0.693124 -20.073763 -0.000000 0.000000 0.000000 -1.879147 0.550298 0.084560 0.000000 0.000000 0.000000 -0.000000 0.000000 0.000000 -3.552681 -5.517412 2.658275 -12.810892 0.701309 20.769944 -0.505909 -25.332248 -4.121522 0.000000 0.000000 0.000000 0.000000 0.000000 0.000000 -0.000000 0.000000 0.000000 4.123917 -1.730078 -1.157804 -7.579513 -3.602813 9.390981 7.024548 -0.108769 -0.445213 0.000000 0.000000 0.000000 0.000000 0.000000 0.000000 -0.432950 -1.519425 -19.944307 -0.220895 2.803235 -0.221148 -4.837910 30.793605 -4.642914 0.000000 0.000000 0.000000 0.141237 -0.693124 -20.073763 -0.620607 -1.235643 -0.189045 -0.836566 12.279820 -4.499964 0.000000 0.000000 0.000000
33.542226 74.856866 372.453020 -0.351587 0.703940 19.959858 0.090186 -0.781668 -19.957083 -0.000000 0.000000 0.000000 -1.777146 0.744582 0.133715 0.000000 0.000000 0.000000 -0.000000 0.000000 0.000000 -3.992040 -6.414401 2.876531 -15.142207 0.124281 23.474147 -2.179878 -28.553424 -6.156403 0.000000 0.000000 0.000000 0.000000 0.000000 0.000000 -0.000000 0.000000 0.000000 3.160862 -1.557823 -0.718769 -5.024720 -1.729981 7.516408 4.049269 -0.127242 -1.275252 0.000000 0.000000 0.000000 0.000000 0.000000 0.000000 -0.235333 -1.511753 -19.829474 -0.377919 2.373644 -0.208178 -6.486753 32.053029 -3.559595 0.000000 0.000000 0.000000 0.090186 -0.781668 -19.957083 -0.547908 -1.161675 -0.171267 -0.208928 11.928008 -5.589496 0.000000 0.000000 0.000000
33.586049 74.862906 372.406583 -0.306837 0.768734 19.969661 0.025861 -0.827300 -19.967416 -0.000000 0.000000 0.000000 -1.684106 1.079430 0.216243 0.000000 0.000000 0.000000 -0.000000 0.000000 0.000000 -4.131305 -7.036800 2.753437 -15.278186 0.334433 26.651119 -4.027874 -28.950305 -9.202140 0.000000 0.000000 0.000000 0.000000 0.000000 0.000000 -0.000000 0.000000 0.000000 3.416210 -0.866173 -1.384624 -8.620888 -7.374104 12.685154 9.688803 1.849472 -5.915730 0.000000 0.000000 0.000000 0.000000 0.000000 0.000000 0.025861 -0.827300 -19.967416 -0.505551 1.367883 -0.092268 -4.902589 29.027266 -4.045097 0.000000 0.000000 0.000000 0.025861 -0.827300 -19.967416 -0.620186 -0.915956 -0.166046 1.054834 6.788465 -4.824520 0.000000 0.000000 0.000000
33.640610 74.868923 372.382688 -0.238236 0.787602 20.097215 -0.046896 -0.821505 -20.095914 -0.000000 0.000000 0.000000 -1.698223 1.429220 0.300410 0.000000 0.000000 0.000000 -0.000000 0.000000 0.000000 -3.791883 -5.970931 2.796646 -13.400177 0.420028 28.582075 -6.818624 -28.645992 -11.078499 0.000000 0.000000 0.000000 0.000000 0.000000 0.000000 -0.476993 0.661865 0.282350 2.434116 -0.276167 -1.689963 -9.312745 -12.674912 16.790652 13.391413 3.768393 -10.968513 0.000000 0.000000 0.000000 0.000000 0.000000 0.000000 -0.046896 -0.821505 -20.095914 -0.570979 1.249432 -0.104666 -4.987939 28.717221 -3.811906 0.000000 0.000000 0.000000 -0.046896 -0.821505 -20.095914 -0.678248 -0.878824 -0.173205 2.144941 2.407943 -3.898254 0.000000 0.000000 0.000000
